<svg width="102" height="106" viewBox="0 0 102 106" fill="none" xmlns="http://www.w3.org/2000/svg">
<g filter="url(#filter0_f_384_429)">
<path fill-rule="evenodd" clip-rule="evenodd" d="M55.7056 4.0564H56.6919H65.2146H65.6141L65.901 4.33443L72.8454 11.0643H80.7102H81.1576L81.4523 11.4009L88.6836 19.6603L88.9279 19.9393V20.31V20.3103V20.3106V20.311V20.3116V20.3122V20.313V20.3139V20.3149V20.3161V20.3174V20.3187V20.3202V20.3218V20.3236V20.3254V20.3274V20.3294V20.3316V20.3339V20.3364V20.3389V20.3415V20.3443V20.3472V20.3501V20.3532V20.3564V20.3598V20.3632V20.3667V20.3704V20.3741V20.378V20.3819V20.386V20.3902V20.3945V20.3989V20.4034V20.408V20.4127V20.4175V20.4225V20.4275V20.4326V20.4379V20.4432V20.4486V20.4542V20.4598V20.4656V20.4714V20.4774V20.4834V20.4896V20.4958V20.5021V20.5086V20.5151V20.5218V20.5285V20.5353V20.5422V20.5493V20.5564V20.5636V20.5709V20.5783V20.5858V20.5934V20.6011V20.6088V20.6167V20.6247V20.6327V20.6408V20.6491V20.6574V20.6658V20.6743V20.6829V20.6915V20.7003V20.7092V20.7181V20.7271V20.7362V20.7454V20.7547V20.7641V20.7735V20.783V20.7927V20.8024V20.8121V20.822V20.832V20.842V20.8521V20.8623V20.8726V20.8829V20.8933V20.9039V20.9144V20.9251V20.9359V20.9467V20.9576V20.9686V20.9796V20.9907V21.0019V21.0132V21.0246V21.036V21.0475V21.0591V21.0707V21.0825V21.0942V21.1061V21.118V21.1301V21.1421V21.1543V21.1665V21.1788V21.1911V21.2036V21.216V21.2286V21.2412V21.2539V21.2667V21.2795V21.2924V21.3054V21.3184V21.3315V21.3446V21.3578V21.3711V21.3844V21.3978V21.4113V21.4248V21.4384V21.452V21.4657V21.4795V21.4933V21.5072V21.5212V21.5352V21.5492V21.5633V21.5775V21.5917V21.606V21.6203V21.6347V21.6492V21.6637V21.6782V21.6929V21.7075V21.7222V21.737V21.7518V21.7667V21.7816V21.7966V21.8116V21.8267V21.8418V21.857V21.8722V21.8875V21.9028V21.9181V21.9335V21.949V21.9645V21.98V21.9956V22.0113V22.027V22.0427V22.0585V22.0743V22.0901V22.106V22.122V22.1379V22.154V22.17V22.1861V22.2023V22.2184V22.2347V22.2509V22.2672V22.2836V22.2999V22.3163V22.3328V22.3493V22.3658V22.3823V22.3989V22.4156V22.4322V22.4489V22.4656V22.4824V22.4992V22.516V22.5328V22.5497V22.5666V22.5836V22.6006V22.6176V22.6346V22.6517V22.6687V22.6859V22.703V22.7202V22.7374V22.7546V22.7719V22.7891V22.8064V22.8238V22.8411V22.8585V22.8759V22.8933V22.9107V22.9282V22.9457V22.9632V22.9807V22.9983V23.0158V23.0334V23.051V23.0686V23.0863V23.104V23.1216V23.1393V23.157V23.1748V23.1925V23.2103V23.228V23.2458V23.2636V23.2815V23.2993V23.3171V23.335V23.3529V23.3707V23.3886V23.4065V23.4244V23.4424V23.4603V23.4782V23.4962V23.5141V23.5321V23.5501V23.5681V23.586V23.604V23.622V23.64V23.6581V23.6761V23.6941V23.7121V23.7301V23.7482V23.7662V23.7842V23.8023V23.8203V23.8383V23.8564V23.8744V23.8925V23.9105V23.9285V23.9466V23.9646V23.9826V24.0007V24.0187V24.0367V24.0547V24.0727V24.0907V24.1087V24.1267V24.1447V24.1627V24.1807V24.1987V24.2166V24.2346V24.2525V24.2705V24.2884V24.3063V24.3242V24.3421V24.36V24.3779V24.3957V24.4136V24.4314V24.4492V24.467V24.4848V24.5026V24.5204V24.5381V24.5559V24.5736V24.5913V24.609V24.6266V24.6443V24.6619V24.6795V24.6971V24.7147V24.7323V24.7498V24.7673V24.7848V24.8023V24.8197V24.8372V24.8546V24.8719V24.8893V24.9066V24.9239V24.9412V24.9585V24.9757V24.9929V25.0101V25.0273V25.0444V25.0615V25.0786V25.0956V25.1126V25.1296V25.1466V25.1635V25.1804V25.1973V25.2141V25.2309V25.2477V25.2644V25.2811V25.2978V25.3144V25.331V25.3476V25.3641V25.3806V25.3971V25.4135V25.4299V25.4463V25.4626V25.4788V25.4951V25.5113V25.5274V25.5436V25.5596V25.5757V25.5917V25.6076V25.6235V25.6394V25.6552V25.671V25.6868V25.7025V25.7181V25.7337V25.7493V25.7648V25.7803V25.7957V25.8111V25.8264V25.8417V25.857V25.8722V25.8873V25.9024V25.9174V25.9324V25.9474V25.9623V25.9771V25.9919V26.0066V26.0213V26.036V26.0505V26.0651V26.0795V26.0939V26.1083V26.1226V26.1369V26.1511V26.1652V26.1793V26.1933V26.2073V26.2212V26.235V26.2488V26.2625V26.2762V26.2898V26.3034V26.3168V26.3303V26.3436V26.3569V26.3702V26.3833V26.3965V26.4095V26.4225V26.4354V26.4483V26.461V26.4738V26.4864V26.499V26.5115V26.524V26.5364V26.5487V26.5609V26.5731V26.5852V26.5972V26.6092V26.6211V26.6329V26.6447V26.6563V26.6679V26.6795V26.6804L95.6373 33.9051L95.9009 34.1889V34.5763V44.3374V44.7375L95.6222 45.0245L92.0774 48.6745L95.7035 53.5065L95.9009 53.7695V54.0985V64.3601V64.7888L95.5876 65.0812L88.9279 71.2962V79.127V79.5153L88.6631 79.7994L81.4318 87.5583L81.1393 87.8721H80.7102H72.8653L65.925 95.0785L65.634 95.3806H65.2146H56.6919H55.7056V94.3943V68.615V67.6287H56.6919H71.4596V60.6059V37.7271L64.7951 30.8072H56.6919H55.7056V29.8209V5.04271V4.0564ZM73.4322 38.3157V59.6196H81.047C81.4913 58.8634 82.3306 58.3534 83.2928 58.3534C84.7191 58.3534 85.8754 59.474 85.8754 60.8563C85.8754 62.2386 84.7191 63.3591 83.2928 63.3591C82.1307 63.3591 81.1479 62.6153 80.8236 61.5922H73.4322V68.615V69.6013H72.4459H57.6782V93.408H64.7951L71.7355 86.2016L72.0264 85.8995H72.4459H80.2812L86.9552 78.7386V71.8539H78.4017L73.9012 78.7076C73.9621 78.9207 73.9947 79.1452 73.9947 79.3772C73.9947 80.7594 72.8384 81.88 71.412 81.88C69.9857 81.88 68.8294 80.7594 68.8294 79.3772C68.8294 77.9949 69.9857 76.8743 71.412 76.8743C71.8287 76.8743 72.2223 76.9699 72.5708 77.1398L77.0449 70.3262L77.3371 69.8812H77.8694H87.5528L93.9283 63.9315V54.4274L90.2895 49.5785H82.9559C82.5115 50.3348 81.6722 50.8447 80.71 50.8447C79.2837 50.8447 78.1274 49.7242 78.1274 48.3419C78.1274 46.9596 79.2837 45.8391 80.71 45.8391C81.872 45.8391 82.8548 46.5828 83.1791 47.6059H90.3654L93.9283 43.9372V34.9636L87.5115 28.0541H77.8694H77.3963L77.1001 27.6851L71.9423 21.2585C71.7712 21.2931 71.5938 21.3113 71.412 21.3113C69.9857 21.3113 68.8294 20.1907 68.8294 18.8084C68.8294 17.4261 69.9857 16.3056 71.412 16.3056C72.8384 16.3056 73.9947 17.4261 73.9947 18.8084C73.9947 19.3051 73.8454 19.768 73.5879 20.1572L78.3425 26.0814H86.9552V26.0795V26.0651V26.0505V26.036V26.0213V26.0066V25.9919V25.9771V25.9623V25.9474V25.9324V25.9174V25.9024V25.8873V25.8722V25.857V25.8417V25.8264V25.8111V25.7957V25.7803V25.7648V25.7493V25.7337V25.7181V25.7025V25.6868V25.671V25.6552V25.6394V25.6235V25.6076V25.5917V25.5757V25.5596V25.5436V25.5274V25.5113V25.4951V25.4788V25.4626V25.4463V25.4299V25.4135V25.3971V25.3806V25.3641V25.3476V25.331V25.3144V25.2978V25.2811V25.2644V25.2477V25.2309V25.2141V25.1973V25.1804V25.1635V25.1466V25.1296V25.1126V25.0956V25.0786V25.0615V25.0444V25.0273V25.0101V24.9929V24.9757V24.9585V24.9412V24.9239V24.9066V24.8893V24.8719V24.8546V24.8372V24.8197V24.8023V24.7848V24.7673V24.7498V24.7323V24.7147V24.6971V24.6795V24.6619V24.6443V24.6266V24.609V24.5913V24.5736V24.5559V24.5381V24.5204V24.5026V24.4848V24.467V24.4492V24.4314V24.4136V24.3957V24.3779V24.36V24.3421V24.3242V24.3063V24.2884V24.2705V24.2525V24.2346V24.2166V24.1987V24.1807V24.1627V24.1447V24.1267V24.1087V24.0907V24.0727V24.0547V24.0367V24.0187V24.0007V23.9826V23.9646V23.9466V23.9285V23.9105V23.8925V23.8744V23.8564V23.8383V23.8203V23.8023V23.7842V23.7662V23.7482V23.7301V23.7121V23.6941V23.6761V23.6581V23.64V23.622V23.604V23.586V23.5681V23.5501V23.5321V23.5141V23.4962V23.4782V23.4603V23.4424V23.4244V23.4065V23.3886V23.3707V23.3529V23.335V23.3171V23.2993V23.2815V23.2636V23.2458V23.228V23.2103V23.1925V23.1748V23.157V23.1393V23.1216V23.104V23.0863V23.0686V23.051V23.0334V23.0158V22.9983V22.9807V22.9632V22.9457V22.9282V22.9107V22.8933V22.8759V22.8585V22.8411V22.8238V22.8064V22.7891V22.7719V22.7546V22.7374V22.7202V22.703V22.6859V22.6687V22.6517V22.6346V22.6176V22.6006V22.5836V22.5666V22.5497V22.5328V22.516V22.4992V22.4824V22.4656V22.4489V22.4322V22.4156V22.3989V22.3823V22.3658V22.3493V22.3328V22.3163V22.2999V22.2836V22.2672V22.2509V22.2347V22.2184V22.2023V22.1861V22.17V22.154V22.1379V22.122V22.106V22.0901V22.0743V22.0585V22.0427V22.027V22.0113V21.9956V21.98V21.9645V21.949V21.9335V21.9181V21.9028V21.8875V21.8722V21.857V21.8418V21.8267V21.8116V21.7966V21.7816V21.7667V21.7518V21.737V21.7222V21.7075V21.6929V21.6782V21.6637V21.6492V21.6347V21.6203V21.606V21.5917V21.5775V21.5633V21.5492V21.5352V21.5212V21.5072V21.4933V21.4795V21.4657V21.452V21.4384V21.4248V21.4113V21.3978V21.3844V21.3711V21.3578V21.3446V21.3315V21.3184V21.3054V21.2924V21.2795V21.2667V21.2539V21.2412V21.2286V21.216V21.2036V21.1911V21.1788V21.1665V21.1543V21.1421V21.1301V21.118V21.1061V21.0942V21.0825V21.0707V21.0591V21.0475V21.036V21.0246V21.0132V21.0019V20.9907V20.9796V20.9686V20.9576V20.9467V20.9359V20.9251V20.9144V20.9039V20.8933V20.8829V20.8726V20.8623V20.8521V20.842V20.832V20.822V20.8121V20.8024V20.7927V20.783V20.7735V20.7641V20.7547V20.7454V20.7362V20.7271V20.7181V20.7092V20.7003V20.6915V20.6829V20.6808L80.2629 13.037H72.4459H72.0464L71.7595 12.7589L64.815 6.02902H57.6782V28.8346H65.2146H65.634L65.925 29.1367L72.8653 36.3431H82.4672C82.8621 35.4511 83.7766 34.8263 84.8416 34.8263C86.268 34.8263 87.4242 35.9468 87.4242 37.3291C87.4242 38.7114 86.268 39.832 84.8416 39.832C83.7768 39.832 82.8625 39.2074 82.4674 38.3157H73.4322ZM32.7198 42.085V44.3605L34.3804 42.8048L42.1283 35.5465L43.9495 33.8404H41.4539H33.7061H32.7198V34.8267V42.085ZM34.6924 35.8131H38.9584L34.6924 39.8095V35.8131ZM69.8159 58.3534V56.0779L68.1552 57.6336L60.4074 64.8919L58.5862 66.598H61.0817H68.8296H69.8159V65.6117V58.3534ZM67.8432 64.6254H63.5772L67.8432 60.6289V64.6254ZM46.1026 95.6309H47.0889V94.6446V69.8664V68.8801H46.1026H37.9994L31.3349 61.9602V39.0814V32.0586H46.1026H47.0889V31.0723V5.29295V4.30664H46.1026H37.5799H37.1605L36.8695 4.60876L29.9292 11.8152H22.0842H21.6552L21.3627 12.129L14.1314 19.8878L13.8666 20.172V20.5603V28.3911L7.20693 34.606L6.89355 34.8985V35.3271V45.5888V45.9177L7.09099 46.1808L10.7171 51.0127L7.17231 54.6627L6.89355 54.9498V55.3499V65.111V65.4983L7.15714 65.7822L13.8666 73.0069V73.0078V73.0193V73.0309V73.0426V73.0544V73.0662V73.0781V73.09V73.1021V73.1142V73.1264V73.1386V73.1509V73.1633V73.1758V73.1883V73.2009V73.2135V73.2262V73.239V73.2519V73.2648V73.2778V73.2908V73.3039V73.3171V73.3303V73.3436V73.357V73.3704V73.3839V73.3975V73.4111V73.4247V73.4385V73.4523V73.4661V73.48V73.494V73.508V73.5221V73.5362V73.5504V73.5647V73.579V73.5933V73.6077V73.6222V73.6367V73.6513V73.666V73.6806V73.6954V73.7102V73.725V73.7399V73.7548V73.7698V73.7849V73.8V73.8151V73.8303V73.8455V73.8608V73.8762V73.8915V73.907V73.9224V73.938V73.9535V73.9691V73.9848V74.0005V74.0162V74.032V74.0479V74.0637V74.0797V74.0956V74.1116V74.1276V74.1437V74.1598V74.176V74.1922V74.2084V74.2247V74.241V74.2574V74.2738V74.2902V74.3066V74.3231V74.3397V74.3562V74.3728V74.3895V74.4062V74.4229V74.4396V74.4564V74.4732V74.49V74.5069V74.5238V74.5407V74.5576V74.5746V74.5916V74.6087V74.6258V74.6429V74.66V74.6772V74.6943V74.7115V74.7288V74.746V74.7633V74.7806V74.798V74.8153V74.8327V74.8501V74.8675V74.885V74.9025V74.92V74.9375V74.955V74.9726V74.9901V75.0077V75.0254V75.043V75.0606V75.0783V75.096V75.1137V75.1314V75.1491V75.1669V75.1847V75.2024V75.2202V75.2381V75.2559V75.2737V75.2916V75.3094V75.3273V75.3452V75.3631V75.381V75.3989V75.4168V75.4348V75.4527V75.4707V75.4886V75.5066V75.5246V75.5425V75.5605V75.5785V75.5965V75.6145V75.6326V75.6506V75.6686V75.6866V75.7046V75.7227V75.7407V75.7587V75.7768V75.7948V75.8129V75.8309V75.8489V75.867V75.885V75.903V75.9211V75.9391V75.9571V75.9752V75.9932V76.0112V76.0292V76.0472V76.0652V76.0832V76.1012V76.1192V76.1372V76.1552V76.1731V76.1911V76.209V76.227V76.2449V76.2628V76.2807V76.2986V76.3165V76.3344V76.3523V76.3701V76.388V76.4058V76.4236V76.4414V76.4592V76.477V76.4948V76.5125V76.5302V76.5479V76.5656V76.5833V76.601V76.6186V76.6362V76.6539V76.6714V76.689V76.7066V76.7241V76.7416V76.7591V76.7765V76.794V76.8114V76.8288V76.8462V76.8635V76.8808V76.8981V76.9154V76.9327V76.9499V76.9671V76.9843V77.0014V77.0185V77.0356V77.0527V77.0697V77.0867V77.1037V77.1206V77.1375V77.1544V77.1713V77.1881V77.2049V77.2216V77.2384V77.2551V77.2717V77.2883V77.3049V77.3215V77.338V77.3545V77.3709V77.3873V77.4037V77.42V77.4363V77.4526V77.4688V77.485V77.5011V77.5173V77.5333V77.5493V77.5653V77.5813V77.5972V77.613V77.6288V77.6446V77.6603V77.676V77.6916V77.7072V77.7228V77.7383V77.7537V77.7691V77.7845V77.7998V77.8151V77.8303V77.8455V77.8606V77.8757V77.8907V77.9057V77.9206V77.9355V77.9503V77.965V77.9798V77.9944V78.009V78.0236V78.0381V78.0525V78.0669V78.0813V78.0956V78.1098V78.1239V78.1381V78.1521V78.1661V78.1801V78.1939V78.2078V78.2215V78.2352V78.2489V78.2625V78.276V78.2894V78.3028V78.3162V78.3295V78.3427V78.3558V78.3689V78.3819V78.3949V78.4078V78.4206V78.4333V78.446V78.4587V78.4712V78.4837V78.4961V78.5085V78.5208V78.533V78.5451V78.5572V78.5692V78.5812V78.593V78.6048V78.6165V78.6282V78.6398V78.6513V78.6627V78.674V78.6853V78.6965V78.7077V78.7187V78.7297V78.7406V78.7514V78.7622V78.7728V78.7834V78.7939V78.8044V78.8147V78.825V78.8352V78.8453V78.8553V78.8653V78.8751V78.8849V78.8946V78.9042V78.9138V78.9232V78.9326V78.9418V78.951V78.9602V78.9692V78.9781V78.987V78.9957V79.0044V79.013V79.0215V79.0299V79.0382V79.0464V79.0546V79.0626V79.0706V79.0784V79.0862V79.0939V79.1015V79.109V79.1164V79.1237V79.1309V79.138V79.145V79.1519V79.1588V79.1655V79.1721V79.1787V79.1851V79.1915V79.1977V79.2039V79.2099V79.2159V79.2217V79.2274V79.2331V79.2386V79.2441V79.2494V79.2546V79.2598V79.2648V79.2697V79.2745V79.2793V79.2839V79.2884V79.2928V79.2971V79.3013V79.3053V79.3093V79.3132V79.3169V79.3206V79.3241V79.3275V79.3308V79.334V79.3371V79.3401V79.343V79.3457V79.3484V79.3509V79.3533V79.3556V79.3578V79.3599V79.3619V79.3637V79.3654V79.3671V79.3685V79.3699V79.3712V79.3723V79.3733V79.3743V79.375V79.3757V79.3763V79.3767V79.377V79.3772V79.748L14.1108 80.0269L21.3422 88.2863L21.6369 88.6229H22.0842H29.9491L36.8935 95.3528L37.1804 95.6309H37.5799H46.1026ZM29.3623 40.0677V61.3716H20.8043C20.3339 60.7554 19.5785 60.356 18.7269 60.356C17.3006 60.356 16.1443 61.4765 16.1443 62.8588C16.1443 64.2411 17.3006 65.3616 18.7269 65.3616C19.9819 65.3616 21.0278 64.4942 21.261 63.3442H29.9292L36.8695 70.5506L37.1605 70.8527H37.5799H45.1163V93.6582H37.9794L31.035 86.9283L30.7481 86.6503H30.3486H22.5316L15.8392 79.0065V79.0044V78.9957V78.987V78.9781V78.9692V78.9602V78.951V78.9418V78.9326V78.9232V78.9138V78.9042V78.8946V78.8849V78.8751V78.8653V78.8553V78.8453V78.8352V78.825V78.8147V78.8044V78.7939V78.7834V78.7728V78.7622V78.7514V78.7406V78.7297V78.7187V78.7077V78.6965V78.6853V78.674V78.6627V78.6513V78.6398V78.6282V78.6165V78.6048V78.593V78.5812V78.5692V78.5572V78.5451V78.533V78.5208V78.5085V78.4961V78.4837V78.4712V78.4587V78.446V78.4333V78.4206V78.4078V78.3949V78.3819V78.3689V78.3558V78.3427V78.3295V78.3162V78.3028V78.2894V78.276V78.2625V78.2489V78.2352V78.2215V78.2078V78.1939V78.1801V78.1661V78.1521V78.1381V78.1239V78.1098V78.0956V78.0813V78.0669V78.0525V78.0381V78.0236V78.009V77.9944V77.9798V77.965V77.9503V77.9355V77.9206V77.9057V77.8907V77.8757V77.8606V77.8455V77.8303V77.8151V77.7998V77.7845V77.7691V77.7537V77.7383V77.7228V77.7072V77.6916V77.676V77.6603V77.6446V77.6288V77.613V77.5972V77.5813V77.5653V77.5493V77.5333V77.5173V77.5011V77.485V77.4688V77.4526V77.4363V77.42V77.4037V77.3873V77.3709V77.3545V77.338V77.3215V77.3049V77.2883V77.2717V77.2551V77.2384V77.2216V77.2049V77.1881V77.1713V77.1544V77.1375V77.1206V77.1037V77.0867V77.0697V77.0527V77.0356V77.0185V77.0014V76.9843V76.9671V76.9499V76.9327V76.9154V76.8981V76.8808V76.8635V76.8462V76.8288V76.8114V76.794V76.7765V76.7591V76.7416V76.7241V76.7066V76.689V76.6714V76.6539V76.6362V76.6186V76.601V76.5833V76.5656V76.5479V76.5302V76.5125V76.4948V76.477V76.4592V76.4414V76.4236V76.4058V76.388V76.3701V76.3523V76.3344V76.3165V76.2986V76.2807V76.2628V76.2449V76.227V76.209V76.1911V76.1731V76.1552V76.1372V76.1192V76.1012V76.0832V76.0652V76.0472V76.0292V76.0112V75.9932V75.9752V75.9571V75.9391V75.9211V75.903V75.885V75.867V75.8489V75.8309V75.8129V75.7948V75.7768V75.7587V75.7407V75.7227V75.7046V75.6866V75.6686V75.6506V75.6326V75.6145V75.5965V75.5785V75.5605V75.5425V75.5246V75.5066V75.4886V75.4707V75.4527V75.4348V75.4168V75.3989V75.381V75.3631V75.3452V75.3273V75.3094V75.2916V75.2737V75.2559V75.2381V75.2202V75.2024V75.1847V75.1669V75.1491V75.1314V75.1137V75.096V75.0783V75.0606V75.043V75.0254V75.0077V74.9901V74.9726V74.955V74.9375V74.92V74.9025V74.885V74.8675V74.8501V74.8327V74.8153V74.798V74.7806V74.7633V74.746V74.7288V74.7115V74.6943V74.6772V74.66V74.6429V74.6258V74.6087V74.5916V74.5746V74.5576V74.5407V74.5238V74.5069V74.49V74.4732V74.4564V74.4396V74.4229V74.4062V74.3895V74.3728V74.3562V74.3397V74.3231V74.3066V74.2902V74.2738V74.2574V74.241V74.2247V74.2084V74.1922V74.176V74.1598V74.1437V74.1276V74.1116V74.0956V74.0797V74.0637V74.0479V74.032V74.0162V74.0005V73.9848V73.9691V73.9535V73.938V73.9224V73.907V73.8915V73.8762V73.8608V73.8455V73.8303V73.8151V73.8V73.7849V73.7698V73.7548V73.7399V73.725V73.7102V73.6954V73.6806V73.666V73.6513V73.6367V73.6222V73.6077V73.6059H24.452L27.7008 77.6538C27.261 78.1026 26.9911 78.7093 26.9911 79.3772C26.9911 80.7594 28.1474 81.88 29.5737 81.88C31 81.88 32.1563 80.7594 32.1563 79.3772C32.1563 78.0049 31.0167 76.8906 29.6047 76.8745L25.6943 72.0022L25.3982 71.6332H24.9251H15.283L8.86618 64.7236V55.75L12.4291 52.0814H20.0971C20.5414 52.8376 21.3807 53.3476 22.343 53.3476C23.7693 53.3476 24.9256 52.2271 24.9256 50.8448C24.9256 49.4625 23.7693 48.3419 22.343 48.3419C21.1809 48.3419 20.1982 49.0857 19.8738 50.1087H12.505L8.86618 45.2599V35.7558L15.2417 29.806H24.9251H25.4574L25.7496 29.3611L30.4367 22.2231C30.6553 22.2814 30.8855 22.3125 31.1232 22.3125C32.5496 22.3125 33.7059 21.192 33.7059 19.8097C33.7059 18.4274 32.5496 17.3068 31.1232 17.3068C29.6969 17.3068 28.5406 18.4274 28.5406 19.8097C28.5406 20.2502 28.6581 20.6642 28.8643 21.0238L24.3928 27.8334H15.8392V20.9487L22.5133 13.7878H30.3486H30.7681L31.059 13.4857L37.9994 6.27927H45.1163V30.086H30.3486H29.3623V31.0723V38.0951H21.196C20.8717 37.072 19.8889 36.3283 18.7269 36.3283C17.3006 36.3283 16.1443 37.4488 16.1443 38.8311C16.1443 40.2134 17.3006 41.334 18.7269 41.334C19.6891 41.334 20.5284 40.824 20.9728 40.0677H29.3623ZM47.6301 40.4683L48.5629 42.7065L51.7961 50.4653L53.9863 55.7213L52.1655 56.4801L50.2282 51.831H45.2429L43.404 56.4645L41.5704 55.7369L43.6564 50.4809L46.7357 42.7221L47.6301 40.4683ZM46.0258 49.8584H49.4061L47.6747 45.7035L46.0258 49.8584ZM57.2552 40.5828V56.1005H59.2278V40.5828H57.2552Z" fill="#A55227" fill-opacity="0.5"/>
</g>
<g filter="url(#filter1_d_384_429)">
<g filter="url(#filter2_d_384_429)">
<path fill-rule="evenodd" clip-rule="evenodd" d="M55.5494 0.0375977H56.5937H65.5976H66.0275L66.3328 0.340285L73.6671 7.61135H81.9682H82.449L82.7616 7.97662L90.4012 16.9029L90.6521 17.196V17.5819V17.5822V17.5825V17.583V17.5836V17.5843V17.5851V17.5861V17.5872V17.5885V17.5898V17.5913V17.5929V17.5947V17.5965V17.5985V17.6007V17.6029V17.6053V17.6078V17.6104V17.6131V17.616V17.6189V17.622V17.6253V17.6286V17.6321V17.6357V17.6394V17.6432V17.6471V17.6512V17.6553V17.6596V17.664V17.6686V17.6732V17.678V17.6828V17.6878V17.6929V17.6981V17.7034V17.7089V17.7144V17.7201V17.7258V17.7317V17.7377V17.7438V17.75V17.7563V17.7628V17.7693V17.7759V17.7827V17.7895V17.7965V17.8036V17.8107V17.818V17.8254V17.8329V17.8405V17.8482V17.856V17.8638V17.8718V17.8799V17.8881V17.8964V17.9048V17.9133V17.9219V17.9306V17.9394V17.9483V17.9573V17.9664V17.9756V17.9849V17.9942V18.0037V18.0133V18.0229V18.0327V18.0425V18.0525V18.0625V18.0726V18.0828V18.0931V18.1035V18.114V18.1246V18.1352V18.146V18.1568V18.1677V18.1788V18.1899V18.2011V18.2123V18.2237V18.2351V18.2467V18.2583V18.27V18.2817V18.2936V18.3056V18.3176V18.3297V18.3419V18.3542V18.3665V18.3789V18.3914V18.404V18.4167V18.4294V18.4423V18.4552V18.4681V18.4812V18.4943V18.5075V18.5208V18.5342V18.5476V18.5611V18.5747V18.5883V18.602V18.6158V18.6297V18.6436V18.6576V18.6717V18.6858V18.7V18.7143V18.7286V18.7431V18.7575V18.7721V18.7867V18.8014V18.8161V18.8309V18.8458V18.8608V18.8758V18.8908V18.906V18.9211V18.9364V18.9517V18.9671V18.9825V18.998V19.0136V19.0292V19.0449V19.0606V19.0764V19.0922V19.1081V19.1241V19.1401V19.1562V19.1723V19.1885V19.2047V19.221V19.2374V19.2537V19.2702V19.2867V19.3032V19.3198V19.3365V19.3532V19.37V19.3868V19.4036V19.4205V19.4375V19.4545V19.4715V19.4886V19.5057V19.5229V19.5401V19.5574V19.5747V19.5921V19.6095V19.6269V19.6444V19.6619V19.6795V19.6971V19.7148V19.7325V19.7502V19.768V19.7858V19.8037V19.8215V19.8395V19.8574V19.8754V19.8935V19.9115V19.9297V19.9478V19.966V19.9842V20.0024V20.0207V20.039V20.0574V20.0758V20.0942V20.1126V20.1311V20.1496V20.1681V20.1867V20.2052V20.2239V20.2425V20.2612V20.2799V20.2986V20.3173V20.3361V20.3549V20.3737V20.3926V20.4115V20.4304V20.4493V20.4682V20.4872V20.5062V20.5252V20.5442V20.5633V20.5823V20.6014V20.6205V20.6396V20.6588V20.6779V20.6971V20.7163V20.7355V20.7547V20.774V20.7932V20.8125V20.8318V20.8511V20.8704V20.8897V20.9091V20.9284V20.9478V20.9671V20.9865V21.0059V21.0253V21.0447V21.0641V21.0836V21.103V21.1224V21.1419V21.1613V21.1808V21.2003V21.2197V21.2392V21.2587V21.2782V21.2976V21.3171V21.3366V21.3561V21.3756V21.3951V21.4146V21.4341V21.4536V21.4731V21.4926V21.5121V21.5315V21.551V21.5705V21.59V21.6095V21.6289V21.6484V21.6679V21.6873V21.7068V21.7262V21.7457V21.7651V21.7845V21.8039V21.8233V21.8427V21.8621V21.8815V21.9008V21.9202V21.9395V21.9589V21.9782V21.9975V22.0168V22.036V22.0553V22.0745V22.0938V22.113V22.1322V22.1514V22.1705V22.1897V22.2088V22.2279V22.247V22.2661V22.2852V22.3042V22.3232V22.3422V22.3612V22.3801V22.3991V22.418V22.4369V22.4557V22.4745V22.4934V22.5121V22.5309V22.5496V22.5683V22.587V22.6057V22.6243V22.6429V22.6615V22.68V22.6985V22.717V22.7355V22.7539V22.7723V22.7906V22.809V22.8273V22.8455V22.8637V22.8819V22.9001V22.9182V22.9363V22.9544V22.9724V22.9904V23.0083V23.0262V23.0441V23.0619V23.0797V23.0974V23.1152V23.1328V23.1505V23.168V23.1856V23.2031V23.2206V23.238V23.2554V23.2727V23.29V23.3072V23.3244V23.3416V23.3587V23.3758V23.3928V23.4097V23.4267V23.4435V23.4603V23.4771V23.4938V23.5105V23.5271V23.5437V23.5602V23.5767V23.5931V23.6095V23.6258V23.6421V23.6583V23.6744V23.6905V23.7065V23.7225V23.7385V23.7543V23.7701V23.7859V23.8016V23.8172V23.8328V23.8483V23.8638V23.8792V23.8945V23.9098V23.925V23.9402V23.9553V23.9703V23.9853V24.0002V24.015V24.0298V24.0445V24.0591V24.0737V24.0882V24.1027V24.117V24.1313V24.1456V24.1597V24.1738V24.1879V24.2018V24.2157V24.2295V24.2433V24.257V24.2706V24.2841V24.2976V24.3109V24.3242V24.3375V24.3506V24.3637V24.3767V24.3897V24.4025V24.4153V24.428V24.4406V24.4532V24.4656V24.478V24.4819L97.7478 32.298L98.0189 32.5967V33V43.5492V43.966L97.732 44.2682L93.9674 48.2336L97.8166 53.4807L98.0189 53.7564V54.0984V65.1886V65.6354L97.6957 65.944L90.6521 72.6682V81.1476V81.552L90.3798 81.851L82.7402 90.2362L82.4295 90.5772H81.9682H73.6883L66.3579 98.3635L66.0487 98.692H65.5976H56.5937H55.5494V97.6477V69.7869V68.7426H56.5937H72.1928V61.1312V36.3896L65.1464 28.905H56.5937H55.5494V27.8607V1.08193V0.0375977ZM74.2815 37.0197V60.0869H82.3113C82.7774 59.2577 83.6708 58.6969 84.6962 58.6969C86.2031 58.6969 87.4246 59.9079 87.4246 61.4018C87.4246 62.8957 86.2031 64.1067 84.6962 64.1067C83.4605 64.1067 82.4167 63.2924 82.081 62.1755H74.2815V69.7869V70.8313H73.2372H57.638V96.6033H65.1464L72.4768 88.817L72.786 88.4886H73.2372H81.5069L88.5635 80.7432V73.2657H79.5375L74.7733 80.6878C74.8389 80.9201 74.8739 81.165 74.8739 81.4181C74.8739 82.9119 73.6523 84.123 72.1455 84.123C70.6386 84.123 69.417 82.9119 69.417 81.4181C69.417 79.9242 70.6386 78.7131 72.1455 78.7131C72.5872 78.7131 73.0044 78.8172 73.3735 79.002L78.088 71.6572L78.3963 71.1771H78.9669H89.1893L95.9302 64.7417V54.4404L92.08 49.1919H84.3523C83.8862 50.0211 82.9929 50.5819 81.9674 50.5819C80.4605 50.5819 79.239 49.3709 79.239 47.877C79.239 46.3831 80.4605 45.1721 81.9674 45.1721C83.203 45.1721 84.2468 45.9864 84.5826 47.1032H92.1605L95.9302 43.1324V33.4033L89.1454 25.9296H78.9669H78.4588L78.1452 25.5298L72.7127 18.6053C72.5297 18.6436 72.34 18.6638 72.1455 18.6638C70.6386 18.6638 69.417 17.4528 69.417 15.9589C69.417 14.465 70.6386 13.254 72.1455 13.254C73.6523 13.254 74.8739 14.465 74.8739 15.9589C74.8739 16.4985 74.7146 17.0011 74.44 17.4231L79.4749 23.8409H88.5635V23.8328V23.8172V23.8016V23.7859V23.7701V23.7543V23.7385V23.7225V23.7065V23.6905V23.6744V23.6583V23.6421V23.6258V23.6095V23.5931V23.5767V23.5602V23.5437V23.5271V23.5105V23.4938V23.4771V23.4603V23.4435V23.4267V23.4097V23.3928V23.3758V23.3587V23.3416V23.3244V23.3072V23.29V23.2727V23.2554V23.238V23.2206V23.2031V23.1856V23.168V23.1505V23.1328V23.1152V23.0974V23.0797V23.0619V23.0441V23.0262V23.0083V22.9904V22.9724V22.9544V22.9363V22.9182V22.9001V22.8819V22.8637V22.8455V22.8273V22.809V22.7906V22.7723V22.7539V22.7355V22.717V22.6985V22.68V22.6615V22.6429V22.6243V22.6057V22.587V22.5683V22.5496V22.5309V22.5121V22.4934V22.4745V22.4557V22.4369V22.418V22.3991V22.3801V22.3612V22.3422V22.3232V22.3042V22.2852V22.2661V22.247V22.2279V22.2088V22.1897V22.1705V22.1514V22.1322V22.113V22.0938V22.0745V22.0553V22.036V22.0168V21.9975V21.9782V21.9589V21.9395V21.9202V21.9008V21.8815V21.8621V21.8427V21.8233V21.8039V21.7845V21.7651V21.7457V21.7262V21.7068V21.6873V21.6679V21.6484V21.6289V21.6095V21.59V21.5705V21.551V21.5315V21.5121V21.4926V21.4731V21.4536V21.4341V21.4146V21.3951V21.3756V21.3561V21.3366V21.3171V21.2976V21.2782V21.2587V21.2392V21.2197V21.2003V21.1808V21.1613V21.1419V21.1224V21.103V21.0836V21.0641V21.0447V21.0253V21.0059V20.9865V20.9671V20.9478V20.9284V20.9091V20.8897V20.8704V20.8511V20.8318V20.8125V20.7932V20.774V20.7547V20.7355V20.7163V20.6971V20.6779V20.6588V20.6396V20.6205V20.6014V20.5823V20.5633V20.5442V20.5252V20.5062V20.4872V20.4682V20.4493V20.4304V20.4115V20.3926V20.3737V20.3549V20.3361V20.3173V20.2986V20.2799V20.2612V20.2425V20.2239V20.2052V20.1867V20.1681V20.1496V20.1311V20.1126V20.0942V20.0758V20.0574V20.039V20.0207V20.0024V19.9842V19.966V19.9478V19.9297V19.9115V19.8935V19.8754V19.8574V19.8395V19.8215V19.8037V19.7858V19.768V19.7502V19.7325V19.7148V19.6971V19.6795V19.6619V19.6444V19.6269V19.6095V19.5921V19.5747V19.5574V19.5401V19.5229V19.5057V19.4886V19.4715V19.4545V19.4375V19.4205V19.4036V19.3868V19.37V19.3532V19.3365V19.3198V19.3032V19.2867V19.2702V19.2537V19.2374V19.221V19.2047V19.1885V19.1723V19.1562V19.1401V19.1241V19.1081V19.0922V19.0764V19.0606V19.0449V19.0292V19.0136V18.998V18.9825V18.9671V18.9517V18.9364V18.9211V18.906V18.8908V18.8758V18.8608V18.8458V18.8309V18.8161V18.8014V18.7867V18.7721V18.7575V18.7431V18.7286V18.7143V18.7V18.6858V18.6717V18.6576V18.6436V18.6297V18.6158V18.602V18.5883V18.5747V18.5611V18.5476V18.5342V18.5208V18.5075V18.4943V18.4812V18.4681V18.4552V18.4423V18.4294V18.4167V18.404V18.3914V18.3789V18.3665V18.3542V18.3419V18.3297V18.3176V18.3056V18.2936V18.2817V18.27V18.2583V18.2467V18.2351V18.2237V18.2123V18.2011V18.1899V18.1788V18.1677V18.1568V18.146V18.1352V18.1246V18.114V18.1035V18.0931V18.0828V18.0726V18.0625V18.0525V18.0425V18.0327V18.0229V18.0133V18.0037V17.9942V17.9849V17.9756V17.9678L81.4874 9.70001H73.2372H72.8072L72.5019 9.39732L65.1676 2.12626H57.638V26.8163H65.5976H66.0487L66.3579 27.1448L73.6883 34.9311H83.8154C84.2274 33.9555 85.1996 33.27 86.3332 33.27C87.8401 33.27 89.0616 34.4811 89.0616 35.975C89.0616 37.4689 87.8401 38.6799 86.3332 38.6799C85.1999 38.6799 84.228 37.9949 83.8157 37.0197H74.2815ZM31.266 41.1148V43.5621L33.0329 41.8688L41.2183 34.0245L43.0948 32.2262H40.4957H32.3104H31.266V33.2705V41.1148ZM33.3547 34.3149H37.8966L33.3547 38.6675V34.3149ZM70.461 58.6969V56.2496L68.6941 57.9429L60.5088 65.7872L58.6323 67.5855H61.2313H69.4167H70.461V66.5412V58.6969ZM68.3723 65.4968H63.8304L68.3723 61.1442V65.4968ZM45.4066 98.9623H46.451V97.9179V71.1392V70.0948H45.4066H36.8539L29.8075 62.6102V37.8687V30.2573H45.4066H46.451V29.2129V1.3522V0.307877H45.4066H36.4028H35.9517L35.6424 0.636353L28.312 8.42265H20.0322H19.5709L19.2602 8.76364L11.6206 17.1489L11.3482 17.4478V17.8522V26.3317L4.30465 33.0559L3.98145 33.3645V33.8113V44.9015V45.2435L4.18373 45.5192L8.03296 50.7663L4.26839 54.7317L3.98145 55.0339V55.4507V65.9999V66.4032L4.25255 66.7018L11.3482 74.518V74.5219V74.5342V74.5467V74.5592V74.5719V74.5846V74.5973V74.6102V74.6231V74.6361V74.6492V74.6624V74.6756V74.6889V74.7023V74.7158V74.7293V74.7429V74.7566V74.7703V74.7841V74.798V74.812V74.826V74.8401V74.8543V74.8685V74.8828V74.8972V74.9117V74.9262V74.9407V74.9554V74.9701V74.9849V74.9997V75.0146V75.0296V75.0446V75.0597V75.0748V75.0901V75.1053V75.1207V75.1361V75.1515V75.1671V75.1826V75.1983V75.214V75.2297V75.2455V75.2614V75.2773V75.2933V75.3094V75.3255V75.3416V75.3578V75.3741V75.3904V75.4067V75.4232V75.4396V75.4561V75.4727V75.4893V75.506V75.5227V75.5395V75.5563V75.5732V75.5901V75.6071V75.6241V75.6412V75.6583V75.6754V75.6926V75.7099V75.7272V75.7445V75.7619V75.7793V75.7968V75.8143V75.8318V75.8494V75.867V75.8847V75.9024V75.9202V75.938V75.9558V75.9737V75.9916V76.0095V76.0275V76.0455V76.0636V76.0816V76.0998V76.1179V76.1361V76.1543V76.1726V76.1909V76.2092V76.2276V76.246V76.2644V76.2828V76.3013V76.3198V76.3384V76.3569V76.3755V76.3942V76.4128V76.4315V76.4502V76.469V76.4877V76.5065V76.5253V76.5442V76.563V76.5819V76.6008V76.6197V76.6387V76.6577V76.6767V76.6957V76.7147V76.7338V76.7528V76.7719V76.791V76.8102V76.8293V76.8485V76.8677V76.8869V76.9061V76.9253V76.9446V76.9638V76.9831V77.0024V77.0217V77.041V77.0603V77.0797V77.099V77.1184V77.1378V77.1572V77.1765V77.196V77.2154V77.2348V77.2542V77.2736V77.2931V77.3125V77.332V77.3515V77.3709V77.3904V77.4099V77.4293V77.4488V77.4683V77.4878V77.5073V77.5268V77.5463V77.5658V77.5853V77.6048V77.6243V77.6438V77.6632V77.6827V77.7022V77.7217V77.7412V77.7607V77.7801V77.7996V77.8191V77.8385V77.858V77.8774V77.8969V77.9163V77.9357V77.9551V77.9746V77.9939V78.0133V78.0327V78.0521V78.0714V78.0908V78.1101V78.1295V78.1488V78.1681V78.1873V78.2066V78.2259V78.2451V78.2643V78.2835V78.3027V78.3219V78.3411V78.3602V78.3793V78.3985V78.4175V78.4366V78.4557V78.4747V78.4937V78.5127V78.5316V78.5506V78.5695V78.5884V78.6073V78.6261V78.6449V78.6637V78.6825V78.7013V78.72V78.7387V78.7574V78.776V78.7946V78.8132V78.8318V78.8503V78.8688V78.8873V78.9057V78.9241V78.9425V78.9608V78.9791V78.9974V79.0157V79.0339V79.0521V79.0702V79.0883V79.1064V79.1244V79.1424V79.1604V79.1783V79.1962V79.2141V79.2319V79.2496V79.2674V79.2851V79.3027V79.3203V79.3379V79.3555V79.3729V79.3904V79.4078V79.4251V79.4425V79.4597V79.477V79.4941V79.5113V79.5284V79.5454V79.5624V79.5793V79.5963V79.6131V79.6299V79.6467V79.6634V79.68V79.6966V79.7132V79.7297V79.7461V79.7625V79.7789V79.7951V79.8114V79.8276V79.8437V79.8598V79.8758V79.8917V79.9076V79.9235V79.9393V79.955V79.9707V79.9863V80.0018V80.0173V80.0328V80.0482V80.0635V80.0787V80.0939V80.109V80.1241V80.1391V80.1541V80.1689V80.1837V80.1985V80.2132V80.2278V80.2423V80.2568V80.2712V80.2856V80.2998V80.3141V80.3282V80.3423V80.3563V80.3702V80.3841V80.3978V80.4116V80.4252V80.4388V80.4523V80.4657V80.4791V80.4923V80.5055V80.5187V80.5317V80.5447V80.5576V80.5704V80.5832V80.5958V80.6084V80.6209V80.6334V80.6457V80.658V80.6702V80.6823V80.6943V80.7063V80.7181V80.7299V80.7416V80.7532V80.7647V80.7762V80.7875V80.7988V80.81V80.8211V80.8321V80.843V80.8539V80.8646V80.8753V80.8859V80.8963V80.9067V80.917V80.9273V80.9374V80.9474V80.9573V80.9672V80.9769V80.9866V80.9962V81.0056V81.015V81.0243V81.0335V81.0425V81.0515V81.0604V81.0692V81.0779V81.0865V81.095V81.1034V81.1117V81.1199V81.128V81.136V81.1439V81.1517V81.1594V81.167V81.1745V81.1819V81.1891V81.1963V81.2034V81.2103V81.2172V81.2239V81.2306V81.2371V81.2435V81.2498V81.2561V81.2622V81.2681V81.274V81.2798V81.2854V81.291V81.2964V81.3018V81.307V81.3121V81.317V81.3219V81.3267V81.3313V81.3358V81.3402V81.3445V81.3487V81.3528V81.3567V81.3605V81.3642V81.3678V81.3713V81.3746V81.3778V81.3809V81.3839V81.3868V81.3895V81.3921V81.3946V81.397V81.3992V81.4013V81.4033V81.4052V81.4069V81.4085V81.41V81.4114V81.4126V81.4137V81.4147V81.4156V81.4163V81.4169V81.4173V81.4177V81.4179V81.8038L11.5991 82.097L19.2388 91.0232L19.5514 91.3885H20.0322H28.3332L35.6675 98.6596L35.9729 98.9623H36.4028H45.4066ZM27.7188 38.913V61.9801H18.6956C18.1998 61.302 17.3943 60.8609 16.4849 60.8609C14.978 60.8609 13.7565 62.0719 13.7565 63.5658C13.7565 65.0597 14.978 66.2707 16.4849 66.2707C17.8184 66.2707 18.9285 65.3223 19.1663 64.0688H28.312L35.6424 71.855L35.9517 72.1835H36.4028H44.3623V96.8736H36.8327L29.4984 89.6025L29.1931 89.2999H28.7632H20.513L13.4369 81.032V81.0243V81.015V81.0056V80.9962V80.9866V80.9769V80.9672V80.9573V80.9474V80.9374V80.9273V80.917V80.9067V80.8963V80.8859V80.8753V80.8646V80.8539V80.843V80.8321V80.8211V80.81V80.7988V80.7875V80.7762V80.7647V80.7532V80.7416V80.7299V80.7181V80.7063V80.6943V80.6823V80.6702V80.658V80.6457V80.6334V80.6209V80.6084V80.5958V80.5832V80.5704V80.5576V80.5447V80.5317V80.5187V80.5055V80.4923V80.4791V80.4657V80.4523V80.4388V80.4252V80.4116V80.3978V80.3841V80.3702V80.3563V80.3423V80.3282V80.3141V80.2998V80.2856V80.2712V80.2568V80.2423V80.2278V80.2132V80.1985V80.1837V80.1689V80.1541V80.1391V80.1241V80.109V80.0939V80.0787V80.0635V80.0482V80.0328V80.0173V80.0018V79.9863V79.9707V79.955V79.9393V79.9235V79.9076V79.8917V79.8758V79.8598V79.8437V79.8276V79.8114V79.7951V79.7789V79.7625V79.7461V79.7297V79.7132V79.6966V79.68V79.6634V79.6467V79.6299V79.6131V79.5963V79.5793V79.5624V79.5454V79.5284V79.5113V79.4941V79.477V79.4597V79.4425V79.4251V79.4078V79.3904V79.3729V79.3555V79.3379V79.3203V79.3027V79.2851V79.2674V79.2496V79.2319V79.2141V79.1962V79.1783V79.1604V79.1424V79.1244V79.1064V79.0883V79.0702V79.0521V79.0339V79.0157V78.9974V78.9791V78.9608V78.9425V78.9241V78.9057V78.8873V78.8688V78.8503V78.8318V78.8132V78.7946V78.776V78.7574V78.7387V78.72V78.7013V78.6825V78.6637V78.6449V78.6261V78.6073V78.5884V78.5695V78.5506V78.5316V78.5127V78.4937V78.4747V78.4557V78.4366V78.4175V78.3985V78.3793V78.3602V78.3411V78.3219V78.3027V78.2835V78.2643V78.2451V78.2259V78.2066V78.1873V78.1681V78.1488V78.1295V78.1101V78.0908V78.0714V78.0521V78.0327V78.0133V77.9939V77.9746V77.9551V77.9357V77.9163V77.8969V77.8774V77.858V77.8385V77.8191V77.7996V77.7801V77.7607V77.7412V77.7217V77.7022V77.6827V77.6632V77.6438V77.6243V77.6048V77.5853V77.5658V77.5463V77.5268V77.5073V77.4878V77.4683V77.4488V77.4293V77.4099V77.3904V77.3709V77.3515V77.332V77.3125V77.2931V77.2736V77.2542V77.2348V77.2154V77.196V77.1765V77.1572V77.1378V77.1184V77.099V77.0797V77.0603V77.041V77.0217V77.0024V76.9831V76.9638V76.9446V76.9253V76.9061V76.8869V76.8677V76.8485V76.8293V76.8102V76.791V76.7719V76.7528V76.7338V76.7147V76.6957V76.6767V76.6577V76.6387V76.6197V76.6008V76.5819V76.563V76.5442V76.5253V76.5065V76.4877V76.469V76.4502V76.4315V76.4128V76.3942V76.3755V76.3569V76.3384V76.3198V76.3013V76.2828V76.2644V76.246V76.2276V76.2092V76.1909V76.1726V76.1543V76.1361V76.1179V76.0998V76.0816V76.0636V76.0455V76.0275V76.0095V75.9916V75.9737V75.9558V75.938V75.9202V75.9024V75.8847V75.867V75.8494V75.8318V75.8143V75.7968V75.7793V75.7619V75.7445V75.7272V75.7099V75.6926V75.6754V75.6583V75.6412V75.6241V75.6071V75.5901V75.5732V75.5563V75.5395V75.5227V75.506V75.4893V75.4727V75.4561V75.4396V75.4232V75.4067V75.3904V75.3741V75.3578V75.3416V75.3255V75.3094V75.2933V75.2773V75.2614V75.2455V75.2297V75.214V75.1983V75.1826V75.1671V75.159H22.5254L25.9708 79.5505C25.5032 80.0361 25.2161 80.6938 25.2161 81.4181C25.2161 82.9119 26.4377 84.123 27.9446 84.123C29.4514 84.123 30.673 82.9119 30.673 81.4181C30.673 79.9321 29.4644 78.726 27.9686 78.7132L23.8551 73.47L23.5415 73.0703H23.0335H12.855L6.07011 65.5965V55.8674L9.83983 51.8966H17.9197C18.3858 52.7259 19.2792 53.2869 20.3048 53.2869C21.8117 53.2869 23.0332 52.0758 23.0332 50.5819C23.0332 49.0881 21.8117 47.877 20.3048 47.877C19.0692 47.877 18.0255 48.6912 17.6897 49.808H9.92037L6.07011 44.5595V34.2581L12.811 27.8228H23.0335H23.6041L23.9123 27.3426L28.8514 19.6481C29.0838 19.7119 29.3287 19.746 29.5816 19.746C31.0884 19.746 32.31 18.535 32.31 17.0411C32.31 15.5472 31.0884 14.3362 29.5816 14.3362C28.0747 14.3362 26.8531 15.5472 26.8531 17.0411C26.8531 17.5191 26.9782 17.9682 27.1977 18.3578L22.4628 25.7342H13.4369V18.2566L20.4935 10.5113H28.7632H29.2143L29.5236 10.1828L36.8539 2.39654H44.3623V28.1686H28.7632H27.7188V29.2129V36.8243H19.1C18.7643 35.7076 17.7205 34.8933 16.4849 34.8933C14.978 34.8933 13.7565 36.1044 13.7565 37.5983C13.7565 39.0921 14.978 40.3032 16.4849 40.3032C17.5104 40.3032 18.4038 39.7423 18.8699 38.913H27.7188ZM47.02 39.3703L48.0108 41.8026L51.4266 50.1879L53.7405 55.8682L51.8062 56.6562L49.7572 51.6262H44.5055L42.5604 56.64L40.6131 55.8845L42.8169 50.2042L46.07 41.8189L47.02 39.3703ZM45.3158 49.5376H48.9063L47.0673 45.023L45.3158 49.5376ZM57.1864 39.4915V56.2621H59.275V39.4915H57.1864Z" fill="#E92828"/>
</g>
</g>
<defs>
<filter id="filter0_f_384_429" x="3.98125" y="1.17632" width="94.8314" height="97.3349" filterUnits="userSpaceOnUse" color-interpolation-filters="sRGB">
<feFlood flood-opacity="0" result="BackgroundImageFix"/>
<feBlend mode="normal" in="SourceGraphic" in2="BackgroundImageFix" result="shape"/>
<feGaussianBlur stdDeviation="1.43271" result="effect1_foregroundBlur_384_429"/>
</filter>
<filter id="filter1_d_384_429" x="0.900587" y="0" width="100.199" height="105.068" filterUnits="userSpaceOnUse" color-interpolation-filters="sRGB">
<feFlood flood-opacity="0" result="BackgroundImageFix"/>
<feColorMatrix in="SourceAlpha" type="matrix" values="0 0 0 0 0 0 0 0 0 0 0 0 0 0 0 0 0 0 127 0" result="hardAlpha"/>
<feOffset dy="3.03398"/>
<feGaussianBlur stdDeviation="1.51699"/>
<feComposite in2="hardAlpha" operator="out"/>
<feColorMatrix type="matrix" values="0 0 0 0 0 0 0 0 0 0 0 0 0 0 0 0 0 0 0.25 0"/>
<feBlend mode="normal" in2="BackgroundImageFix" result="effect1_dropShadow_384_429"/>
<feBlend mode="normal" in="SourceGraphic" in2="effect1_dropShadow_384_429" result="shape"/>
</filter>
<filter id="filter2_d_384_429" x="0.947462" y="0.0375977" width="100.105" height="104.993" filterUnits="userSpaceOnUse" color-interpolation-filters="sRGB">
<feFlood flood-opacity="0" result="BackgroundImageFix"/>
<feColorMatrix in="SourceAlpha" type="matrix" values="0 0 0 0 0 0 0 0 0 0 0 0 0 0 0 0 0 0 127 0" result="hardAlpha"/>
<feOffset dy="3.03398"/>
<feGaussianBlur stdDeviation="1.51699"/>
<feComposite in2="hardAlpha" operator="out"/>
<feColorMatrix type="matrix" values="0 0 0 0 0 0 0 0 0 0 0 0 0 0 0 0 0 0 0.25 0"/>
<feBlend mode="normal" in2="BackgroundImageFix" result="effect1_dropShadow_384_429"/>
<feBlend mode="normal" in="SourceGraphic" in2="effect1_dropShadow_384_429" result="shape"/>
</filter>
</defs>
</svg>
